<?xml version="1.0" encoding="UTF-8"?>
<svg width="256px" height="256px" viewBox="0 0 256 256" version="1.1" xmlns="http://www.w3.org/2000/svg" xmlns:xlink="http://www.w3.org/1999/xlink">
    <!-- Generator: Sketch 49.3 (51167) - http://www.bohemiancoding.com/sketch -->
    <title>Untitled</title>
    <desc>Created with Sketch.</desc>
    <defs></defs>
    <g id="Page-1" stroke="none" stroke-width="1" fill="none" fill-rule="evenodd">
        <g id="album" fill="#646464" fill-rule="nonzero">
            <path d="M255.310769,37.4231579 L219.897436,37.4231579 L219.897436,0.976842105 L0.689230769,0.976842105 L0.689230769,218.576842 L36.1025641,218.576842 L36.1025641,255.023158 L255.310769,255.023158 L255.310769,37.4231579 Z M49.2307692,146.896842 L102.465641,113.212632 L166.596923,194.155789 L49.2307692,194.155789 L49.2307692,146.896842 Z M183.401026,194.054737 L149.694359,151.376842 L198.925128,116.244211 L242.182564,148.749474 L242.182564,194.155789 L183.401026,194.054737 Z M242.182564,132.042105 L199.122051,99.6715789 L141.390769,140.867368 L105.485128,95.4610526 L49.2307692,131.065263 L49.2307692,50.8968421 L242.182564,50.8968421 L242.182564,132.042105 Z M206.769231,14.4505263 L206.769231,37.4231579 L36.1025641,37.4231579 L36.1025641,157.709474 L13.8174359,157.709474 L13.8174359,14.4505263 L206.769231,14.4505263 Z M13.8174359,205.103158 L13.8174359,171.183158 L36.1025641,171.183158 L36.1025641,205.103158 L13.8174359,205.103158 Z M49.2307692,241.549474 L49.2307692,207.629474 L242.182564,207.629474 L242.182564,241.549474 L49.2307692,241.549474 Z" id="Shape"></path>
        </g>
    </g>
</svg>