<?xml version="1.0" standalone="no"?><!DOCTYPE svg PUBLIC "-//W3C//DTD SVG 1.1//EN" "http://www.w3.org/Graphics/SVG/1.1/DTD/svg11.dtd"><svg t="1502725810596" class="icon" style="" viewBox="0 0 1024 1024" version="1.1" xmlns="http://www.w3.org/2000/svg" p-id="15564" xmlns:xlink="http://www.w3.org/1999/xlink" width="128" height="128"><defs><style type="text/css"></style></defs><path d="M911.512 102.4C911.512 45.978 864.869 0 807.269 0H129.79C72.241 0 25.547 45.824 25.547 102.4v819.2c0 56.422 46.643 102.4 104.243 102.4H416.87c14.13 0 25.6-11.878 25.6-25.6 0-14.131-11.879-25.6-25.6-25.6H129.79a51.712 51.712 0 0 1-52.121-51.2V102.4c0-28.262 23.347-51.2 52.121-51.2H807.27c28.723 0 52.121 23.04 52.121 51.2v332.646c0 14.234 11.06 25.754 26.112 25.754a26.163 26.163 0 0 0 26.01-25.754V102.4z m-248.32 891.187L983.089 678.35a50.637 50.637 0 0 0-0.05-72.55l-69.12-68.097a52.736 52.736 0 0 0-73.831 0L520.6 852.89c-15.155 14.899-26.01 40.96-26.01 62.054v52.89c0 28.364 23.296 51.456 52.224 51.456h53.402a98.816 98.816 0 0 0 62.976-25.703z m-36.864-36.147a47.872 47.872 0 0 1-26.112 10.65h-53.453l-0.051-0.256v-52.89c0-7.578 5.427-20.634 10.803-25.958l319.488-315.188v0.103l69.12 68.096c0.154 0.102 0.154 0.102 0 0.205L626.328 957.44zM207.973 588.8c0-14.131 11.878-25.6 25.907-25.6H442.57c14.336 0 25.958 11.366 25.958 25.6 0 14.131-11.878 25.6-25.958 25.6h-208.64a25.702 25.702 0 0 1-25.907-25.6z m0-153.6c0-14.131 11.673-25.6 26.214-25.6h338.38c14.49 0 26.266 11.366 26.266 25.6 0 14.131-11.724 25.6-26.265 25.6H234.187a25.856 25.856 0 0 1-26.214-25.6z m0-153.6c0-14.131 11.57-25.6 25.856-25.6h417.28c14.336 0 25.907 11.366 25.907 25.6 0 14.131-11.623 25.6-25.907 25.6h-417.28a25.702 25.702 0 0 1-25.856-25.6z" p-id="15565" fill="#646464"></path></svg>