<?xml version="1.0" encoding="utf-8"?>
<!-- Generator: Adobe Illustrator 19.0.0, SVG Export Plug-In . SVG Version: 6.00 Build 0)  -->
<svg version="1.1" id="Layer_1" xmlns="http://www.w3.org/2000/svg" xmlns:xlink="http://www.w3.org/1999/xlink" x="0px" y="0px"
	 viewBox="-319 173 256 256" style="enable-background:new -319 173 256 256;" xml:space="preserve">
<style type="text/css">
	.st0{fill:#646464;}
</style>
<path class="st0" d="M-262.4,307c24.2-5.2,20.9-34.2,20.2-40.5c-1.2-9.8-12.7-26.8-28.3-25.5c-19.6,1.8-22.5,30.1-22.5,30.1
	C-295.6,284.2-286.6,312.2-262.4,307z M-236.6,357.4c-0.7,2-2.3,7.3-0.9,11.8c2.7,10.2,11.5,10.6,11.5,10.6h12.7v-31h-13.6
	C-233,350.6-236,355.4-236.6,357.4z M-217.4,258.4c13.4,0,24.2-15.4,24.2-34.5c0-19-10.8-34.4-24.2-34.4
	c-13.4,0-24.2,15.4-24.2,34.4C-241.6,243-230.7,258.4-217.4,258.4z M-159.7,260.7c17.9,2.3,29.4-16.8,31.7-31.3
	c2.3-14.5-9.2-31.3-21.9-34.1c-12.7-2.9-28.6,17.4-30,30.7C-181.6,242.2-177.6,258.4-159.7,260.7z M-115.8,345.8
	c0,0-27.7-21.4-43.9-44.6c-21.9-34.1-53-20.3-63.5-2.9c-10.4,17.4-26.5,28.3-28.8,31.2c-2.3,2.9-33.5,19.7-26.5,50.4
	c6.9,30.7,31.2,30.1,31.2,30.1s17.9,1.8,38.6-2.9c20.8-4.6,38.6,1.1,38.6,1.1s48.5,16.2,61.7-15C-95.1,362-115.8,345.8-115.8,345.8z
	 M-198.8,392.3h-31.5c-13.6-2.7-19-12-19.7-13.6c-0.7-1.6-4.5-9.1-2.5-21.8c5.9-19,22.7-20.4,22.7-20.4h16.8v-20.6l14.3,0.2
	L-198.8,392.3L-198.8,392.3z M-140.1,392.1h-36.3c-14.1-3.6-14.7-13.6-14.7-13.6v-40.1l14.7-0.2v36c0.9,3.8,5.7,4.5,5.7,4.5h14.9
	v-40.4h15.7L-140.1,392.1L-140.1,392.1z M-88.7,285c0-6.9-5.8-27.8-27.1-27.8c-21.4,0-24.2,19.7-24.2,33.6
	c0,13.3,1.1,31.8,27.7,31.2C-85.8,321.5-88.7,292-88.7,285z"/>
</svg>
