<?xml version="1.0" encoding="UTF-8"?>
<svg width="252px" height="252px" viewBox="0 0 252 252" version="1.1" xmlns="http://www.w3.org/2000/svg" xmlns:xlink="http://www.w3.org/1999/xlink">
    <!-- Generator: Sketch 49.3 (51167) - http://www.bohemiancoding.com/sketch -->
    <title>Untitled</title>
    <desc>Created with Sketch.</desc>
    <defs></defs>
    <g id="Page-1" stroke="none" stroke-width="1" fill="none" fill-rule="evenodd">
        <g id="活动图标" fill="#646464" fill-rule="nonzero">
            <path d="M238.750551,22.4210526 L197.356372,22.4210526 L197.356372,5.57894737 C197.356372,2.78652632 195.131021,0.526315789 192.389071,0.526315789 C189.64712,0.526315789 187.421769,2.78652632 187.421769,5.57894737 L187.421769,22.4210526 L64.8949996,22.4210526 L64.8949996,5.57894737 C64.8949996,2.78652632 62.6696486,0.526315789 59.9276982,0.526315789 C57.1857478,0.526315789 54.9603967,2.78652632 54.9603967,5.57894737 L54.9603967,22.4210526 L13.5662178,22.4210526 C6.28084226,22.4210526 0.320080489,28.4842105 0.320080489,35.8947368 L0.320080489,238 C0.320080489,245.410526 6.28084226,251.473684 13.5662178,251.473684 L238.750551,251.473684 C246.035927,251.473684 251.996688,245.410526 251.996688,238 L251.996688,35.8947368 C251.996688,28.4842105 246.035927,22.4210526 238.750551,22.4210526 Z M10.2546834,35.8947368 C10.2546834,34.0690526 11.7713662,32.5263158 13.5662178,32.5263158 L54.9603967,32.5263158 L54.9603967,49.3684211 C54.9603967,52.1608421 57.1857478,54.4210526 59.9276982,54.4210526 C62.6696486,54.4210526 64.8949996,52.1608421 64.8949996,49.3684211 L64.8949996,32.5263158 L187.421769,32.5263158 L187.421769,49.3684211 C187.421769,52.1608421 189.64712,54.4210526 192.389071,54.4210526 C195.131021,54.4210526 197.356372,52.1608421 197.356372,49.3684211 L197.356372,32.5263158 L238.750551,32.5263158 C240.545403,32.5263158 242.062086,34.0690526 242.062086,35.8947368 L242.062086,71.2631579 L10.2546834,71.2631579 L10.2546834,35.8947368 Z M238.750551,241.368421 L13.5662178,241.368421 C11.7713662,241.368421 10.2546834,239.825684 10.2546834,238 L10.2546834,81.3684211 L242.062086,81.3684211 L242.062086,238 C242.062086,239.825684 240.545403,241.368421 238.750551,241.368421 Z" id="Shape"></path>
            <path d="M180.417874,142.768 L149.508013,134.414316 L132.145639,107.093053 C131.225032,105.644632 129.665299,104.782316 127.973105,104.782316 C126.2776,104.782316 124.721179,105.644632 123.800572,107.093053 L106.438198,134.414316 L75.5283363,142.768 C73.8891268,143.209263 72.60094,144.452211 72.0777176,146.089263 C71.5544951,147.726316 71.8790255,149.501474 72.9486511,150.838737 L93.1291412,176.081684 L91.3905857,208.566737 C91.3011743,210.288 92.0595156,211.918316 93.4304908,212.928842 C94.801466,213.942737 96.5565792,214.175158 98.1394926,213.555368 L127.976417,201.833263 L157.810029,213.555368 C159.392943,214.175158 161.151368,213.942737 162.522343,212.928842 C163.890006,211.918316 164.654971,210.288 164.562248,208.566737 L162.823692,176.081684 L183.004183,150.838737 C184.070497,149.504842 184.395027,147.729684 183.875116,146.089263 C183.345271,144.448842 182.053772,143.209263 180.417874,142.768 Z M153.899107,171.217684 C153.124208,172.187789 152.726824,173.430737 152.793055,174.680421 L154.220326,201.307789 L129.761334,191.697684 C128.612231,191.246316 127.330668,191.246316 126.184877,191.697684 L101.725884,201.307789 L103.153156,174.680421 C103.219386,173.430737 102.818691,172.187789 102.047103,171.217684 L85.5026777,150.525474 L110.842538,143.677474 C112.031379,143.357474 113.071201,142.586105 113.740131,141.538526 L127.973105,119.145263 L142.209391,141.538526 C142.87501,142.589474 143.918143,143.357474 145.103672,143.677474 L170.440221,150.525474 L153.899107,171.217684 Z" id="Shape"></path>
        </g>
    </g>
</svg>