<?xml version="1.0" encoding="UTF-8"?>
<svg width="256px" height="256px" viewBox="0 0 256 256" version="1.1" xmlns="http://www.w3.org/2000/svg" xmlns:xlink="http://www.w3.org/1999/xlink">
    <!-- Generator: Sketch 49.3 (51167) - http://www.bohemiancoding.com/sketch -->
    <title>Untitled</title>
    <desc>Created with Sketch.</desc>
    <defs></defs>
    <g id="Page-1" stroke="none" stroke-width="1" fill="none" fill-rule="evenodd">
        <g id="培训专栏" transform="translate(7.000000, 33.000000)" fill="#646464" fill-rule="nonzero">
            <path d="M236.937977,118.319291 L236.937977,68.6460563 C236.937977,68.5916497 236.937977,68.5644464 236.910762,68.5100398 L236.910762,68.4012266 C236.910762,68.2652101 236.856332,68.1563969 236.856332,68.0203803 C236.829117,67.5307208 236.747471,67.013858 236.63861,66.5514019 C235.931016,61.4915871 232.964562,57.0302451 228.446843,54.6907609 L128.485503,1.75312932 C124.10386,-0.504744999 118.824116,-0.586354914 114.388043,1.53550288 L9.01088348,51.9432271 C3.5678484,54.527541 0.111521129,59.9137954 0.00266042769,65.9257258 C-0.106200274,71.9376562 3.1324056,77.4327239 8.49379515,80.2346643 L43.6558018,98.6513018 L43.6558018,150.310378 C43.6558018,172.181835 61.4817416,190 83.3627426,190 L156.680425,190 C178.588641,190 196.387366,172.181835 196.387366,150.310378 L196.387366,102.133325 C196.387366,101.344429 196.25129,100.582736 196.033569,99.8754505 L219.982923,87.2259137 L219.982923,118.319291 C216.934823,120.794792 214.948116,124.521645 214.948116,128.76536 C214.948116,136.246269 221.0171,142.285403 228.474058,142.285403 C235.931016,142.285403 242,136.219066 242,128.76536 C241.972785,124.521645 239.986077,120.794792 236.937977,118.319291 Z M179.377881,150.337581 C179.377881,162.851102 169.172191,173.052341 156.65321,173.052341 L83.3355275,173.052341 C70.8165468,173.052341 60.610856,162.851102 60.610856,150.337581 L60.610856,107.573986 L113.843739,135.484577 C116.184244,136.708725 118.742471,137.307198 121.273482,137.307198 C123.913354,137.307198 126.498796,136.654319 128.78487,135.34856 L179.377881,108.634915 L179.377881,150.337581 Z M121.191836,120.169116 L18.400119,66.2793688 L121.191836,17.0957933 L218.676595,68.700463 L121.191836,120.169116 Z" id="Shape"></path>
        </g>
    </g>
</svg>