<?xml version="1.0" standalone="no"?><!DOCTYPE svg PUBLIC "-//W3C//DTD SVG 1.1//EN" "http://www.w3.org/Graphics/SVG/1.1/DTD/svg11.dtd"><svg t="1526385628095" class="icon" style="" viewBox="0 0 1024 1024" version="1.1" xmlns="http://www.w3.org/2000/svg" p-id="1629" xmlns:xlink="http://www.w3.org/1999/xlink" width="256" height="256"><defs><style type="text/css"></style></defs><path d="M960.3 308.4c-77.7 79.1-174.6 63.1-268.2 47.7-97.7-16.1-198.5-32.7-282.4 51.2-84.2 84.2-68 180.9-50.8 283.4 15.7 93.9 32 191-45.7 269.7l-21.3-21.1c67-67.8 53.3-149.2 37.5-243.6-16.9-100.6-36-214.5 59.1-309.6 94.7-94.7 208.2-76.1 308.2-59.6 94.3 15.6 175.4 28.9 242.3-39.1l21.3 21z" fill="#646464" p-id="1630"></path><path d="M715.6 63.7l21 21.4c-68 66.9-54.6 148.1-39.1 242 16.6 100.2 35.2 213.7-59.5 308.5-95.1 95.1-209 76-309.5 59.2-94.4-15.8-175.8-29.5-243.6 37.5L63.8 711c78.7-77.7 175.8-61.5 269.6-45.8 102.5 17.2 199.3 33.4 283.5-50.8 83.9-83.9 67.3-184.7 51.2-282.2-15.6-93.9-31.6-190.8 47.5-268.5z" fill="#646464" p-id="1631"></path><path d="M534.692 691.391L332.674 489.373l21.213-21.213 202.018 202.018zM350.64 829.38L194.583 673.321l18.88-18.88L369.52 810.5zM326.17 913.858l-216.089-216.09 21.213-21.213 216.09 216.09zM809.058 366.028L657.951 214.921l21.213-21.213 151.107 151.107zM894.904 345.189l-216.09-216.09 21.213-21.213 216.09 216.09zM608.56 630.63L393.39 415.459l21.213-21.213 215.17 215.17zM665.64 560.43L463.623 358.412l21.213-21.213 202.019 202.018z" fill="#646464" p-id="1632"></path></svg>