<?xml version="1.0" encoding="UTF-8"?>
<svg width="256px" height="256px" viewBox="0 0 256 256" version="1.1" xmlns="http://www.w3.org/2000/svg" xmlns:xlink="http://www.w3.org/1999/xlink">
    <!-- Generator: Sketch 49.3 (51167) - http://www.bohemiancoding.com/sketch -->
    <title>Untitled</title>
    <desc>Created with Sketch.</desc>
    <defs></defs>
    <g id="Page-1" stroke="none" stroke-width="1" fill="none" fill-rule="evenodd">
        <g id="商品" fill="#646464" fill-rule="nonzero">
            <path d="M250.97253,44.1142857 L249.091084,43.2 L249.091084,6.42857143 C249.091084,5.11428571 248.535904,3.94285714 247.795663,2.94285714 C247.703133,2.82857143 247.641446,2.71428571 247.548916,2.6 C247.209639,2.22857143 246.870361,1.88571429 246.438554,1.6 C246.222651,1.42857143 245.975904,1.28571429 245.729157,1.17142857 C245.359036,0.971428571 244.988916,0.771428571 244.557108,0.628571429 C244.001928,0.428571429 243.38506,0.342857143 242.768193,0.285714286 C242.613976,0.285714286 242.490602,0.2 242.336386,0.2 L13.540241,0.2 C10.5484337,0.2 7.92674699,2 7.0939759,4.65714286 C6.66216867,5.97142857 6.72385542,7.34285714 7.2173494,8.57142857 C7.00144578,9.17142857 6.81638554,9.77142857 6.81638554,10.4285714 L6.81638554,43.2 L4.84240964,44.1142857 C2.06650602,44.4571429 0,45.6285714 0,48.4285714 L0,245.628571 L0.61686747,246.171429 C1.35710843,251.342857 5.82939759,255.314286 11.5045783,255.628571 L11.6587952,255.742857 L243.724337,255.742857 C250.016386,255.742857 255.013012,251.2 255.444819,245.485714 L255.753253,245.228571 L255.753253,48.4571429 C255.784096,45.6285714 253.748434,44.4857143 250.97253,44.1142857 Z M223.737831,12.6571429 L205.663614,23.3714286 C203.936386,24.6 202.949398,26.5428571 203.041928,28.5428571 C203.134458,30.5714286 204.244819,32.4285714 206.064578,33.5142857 L226.513735,43.9428571 L30.473253,43.9428571 L52.9889157,33.1428571 C54.9320482,32.0285714 56.1349398,30.0571429 56.1966265,27.9142857 C56.2274699,25.7714286 55.0862651,23.7714286 53.1431325,22.6285714 L33.1874699,12.6571429 L223.737831,12.6571429 Z M235.643373,17.6 L235.643373,36.6571429 L217.78506,27.9428571 L235.643373,17.6 Z M20.2949398,17.2285714 L39.8496386,27.7142857 L20.2949398,36.8857143 L20.2949398,17.2285714 Z M242.336386,243.314286 L13.4785542,243.314286 L13.4785542,56.4285714 L242.305542,56.4285714 L242.305542,243.314286 L242.336386,243.314286 Z M75.2886747,102.342857 C80.1927711,127.057143 99.5007229,143.457143 125.62506,143.457143 C151.718554,143.457143 171.026506,127.114286 175.961446,102.428571 C180.063614,100.428571 182.901205,96.4857143 182.901205,91.9142857 C182.901205,85.3428571 177.133494,79.9714286 170.008675,79.9714286 C162.914699,79.9714286 157.116145,85.3142857 157.116145,91.9142857 C157.116145,95.8 159.151807,99.2285714 162.266988,101.4 C158.53494,117.428571 146.876145,131 125.594217,131 C104.343133,131 92.7151807,117.485714 88.9522892,101.485714 C92.1291566,99.3142857 94.226506,95.8571429 94.226506,91.9142857 C94.226506,85.3428571 88.4279518,79.9714286 81.3339759,79.9714286 C74.24,79.9714286 68.4722892,85.3142857 68.4722892,91.9142857 C68.5031325,96.4285714 71.2790361,100.342857 75.2886747,102.342857 Z" id="Shape"></path>
        </g>
    </g>
</svg>