<?xml version="1.0" encoding="UTF-8"?>
<svg width="251px" height="251px" viewBox="0 0 251 251" version="1.1" xmlns="http://www.w3.org/2000/svg" xmlns:xlink="http://www.w3.org/1999/xlink">
    <!-- Generator: Sketch 49.3 (51167) - http://www.bohemiancoding.com/sketch -->
    <title>import-v2</title>
    <desc>Created with Sketch.</desc>
    <defs></defs>
    <g id="Page-1" stroke="none" stroke-width="1" fill="none" fill-rule="evenodd">
        <g id="import" fill="#646464" fill-rule="nonzero">
            <path d="M216.615385,211.615385 C216.615385,222.485538 207.793231,231.307692 196.923077,231.307692 L39.3846154,231.307692 C28.5341538,231.307692 19.6923077,222.485538 19.6923077,211.615385 L19.6923077,54.0769231 C19.6923077,43.2264615 28.5341538,34.3846154 39.3846154,34.3846154 L137.846154,34.3846154 L137.846154,14.6923077 L39.3846154,14.6923077 C17.664,14.6923077 0,32.3563077 0,54.0769231 L0,211.615385 C0,233.336 17.664,251 39.3846154,251 L196.923077,251 C218.643692,251 236.307692,233.336 236.307692,211.615385 L236.307692,113.153846 L216.615385,113.153846 L216.615385,211.615385 Z" id="Shape"></path>
            <polygon id="Shape" points="59.0769231 73.7692308 59.0769231 191.923077 177.230769 191.923077 132.076308 146.768615 250.230154 28.6147692 222.385231 0.769846154 104.231385 118.923692"></polygon>
        </g>
    </g>
</svg>