<?xml version="1.0" encoding="UTF-8"?>
<svg width="256px" height="256px" viewBox="0 0 256 256" version="1.1" xmlns="http://www.w3.org/2000/svg" xmlns:xlink="http://www.w3.org/1999/xlink">
    <!-- Generator: Sketch 49.3 (51167) - http://www.bohemiancoding.com/sketch -->
    <title>Untitled</title>
    <desc>Created with Sketch.</desc>
    <defs></defs>
    <g id="Page-1" stroke="none" stroke-width="1" fill="none" fill-rule="evenodd">
        <g id="单品" transform="translate(7.000000, 0.000000)" fill="#646464" fill-rule="nonzero">
            <path d="M241.001138,247.932651 L228.623436,55.8598407 C228.390444,52.5979522 225.681911,50.0641638 222.390899,50.0641638 L169.734699,50.0641638 C169.763823,49.8894198 169.851195,49.7437998 169.851195,49.5399317 C169.851195,22.3672355 147.746075,0.232992036 120.573379,0.232992036 C93.4006826,0.232992036 71.2955631,22.3381115 71.2955631,49.5399317 L71.2955631,50.0641638 L18.6976109,50.0641638 C15.4357224,50.0641638 12.698066,52.5979522 12.4650739,55.8598407 L0.0291240046,249.184983 C-0.0873720137,250.903299 0.524232082,252.592491 1.68919226,253.873948 C2.85415245,255.12628 4.51422071,255.85438 6.26166098,255.85438 L235.030717,255.85438 C238.467349,255.85438 241.263254,253.058476 241.263254,249.621843 C241.23413,249.039363 241.146758,248.486007 241.001138,247.932651 Z M83.7315131,49.5399317 C83.7315131,29.2405006 100.244824,12.72719 120.544255,12.72719 C140.843686,12.72719 157.356997,29.2405006 157.356997,49.5399317 C157.356997,49.7146758 157.444369,49.8602958 157.473493,50.0641638 L83.7315131,50.0641638 L83.7315131,49.5399317 Z M12.931058,243.360182 L24.5515358,62.5292378 L71.2955631,62.5292378 L71.2955631,76.625256 C68.2957907,78.6639363 66.1697383,81.9549488 66.1697383,85.8575654 C66.1697383,92.1192264 71.2373151,97.2159272 77.5281001,97.2159272 C83.7897611,97.2159272 88.8864619,92.1192264 88.8864619,85.8575654 C88.8864619,81.9549488 86.7895336,78.6639363 83.7606371,76.625256 L83.7606371,62.5292378 L157.415245,62.5292378 L157.415245,76.625256 C154.415472,78.6639363 152.28942,81.9549488 152.28942,85.8575654 C152.28942,92.1192264 157.356997,97.2159272 163.647782,97.2159272 C169.909443,97.2159272 175.006143,92.1192264 175.006143,85.8575654 C175.006143,81.9549488 172.909215,78.6639363 169.880319,76.625256 L169.880319,62.5292378 L216.624346,62.5292378 L228.244824,243.360182 L12.931058,243.360182 Z" id="Shape"></path>
        </g>
    </g>
</svg>