<?xml version="1.0" encoding="UTF-8"?>
<svg width="256px" height="256px" viewBox="0 0 256 256" version="1.1" xmlns="http://www.w3.org/2000/svg" xmlns:xlink="http://www.w3.org/1999/xlink">
    <!-- Generator: Sketch 49.3 (51167) - http://www.bohemiancoding.com/sketch -->
    <title>Untitled</title>
    <desc>Created with Sketch.</desc>
    <defs></defs>
    <g id="Page-1" stroke="none" stroke-width="1" fill="none" fill-rule="evenodd">
        <g id="订单" transform="translate(0.000000, 6.000000)" fill="#646464" fill-rule="nonzero">
            <path d="M235.377778,0.0296296296 L21.9259259,0.0296296296 C10.6962963,0.0296296296 0.177777778,9.15555556 0.177777778,20.3851852 C0.177777778,31.6148148 10.6962963,40.7407407 21.9259259,40.7407407 L23.4074074,40.7407407 L23.4074074,245.096296 L30.962963,237.540741 L31.7925926,237.540741 L53.8666667,215.466667 L77.9259259,239.525926 L78.3407407,239.111111 L79.0814815,239.851852 L103.111111,215.822222 L127.140741,239.851852 L127.881481,239.111111 L128.622222,239.851852 L152.651852,215.822222 L176.681481,239.851852 L177.422222,239.111111 L177.837037,239.525926 L201.896296,215.466667 L223.97037,237.540741 L224.8,237.540741 L232.355556,245.096296 L232.355556,40.7407407 L235.407407,40.7407407 C246.637037,40.7407407 255.762963,31.6148148 255.762963,20.3851852 C255.762963,9.15555556 246.607407,0.0296296296 235.377778,0.0296296296 Z M237.125926,28.9481481 L232.325926,28.9481481 L232.325926,11.8814815 L220.77037,11.8814815 L220.77037,30.7259259 L220.740741,30.7259259 L220.740741,217.096296 L202.311111,198.666667 L201.896296,199.081481 L201.481481,198.666667 L177.422222,222.725926 L153.392593,198.666667 L152.651852,199.407407 L151.911111,198.666667 L127.881481,222.696296 L103.851852,198.666667 L103.111111,199.407407 L102.37037,198.666667 L78.3407407,222.725926 L54.2814815,198.666667 L53.8666667,199.081481 L53.4518519,198.666667 L35.0222222,217.096296 L35.0814815,11.8814815 L23.4074074,11.8814815 L23.4074074,28.9481481 L19.0518519,28.9481481 C14.3407407,28.9481481 10.5185185,25.1259259 10.5185185,20.3851852 C10.5185185,15.6740741 14.3407407,11.8518519 19.0518519,11.8518519 L237.125926,11.8518519 C241.837037,11.8518519 245.688889,15.6740741 245.688889,20.3851852 C245.659259,25.1259259 241.837037,28.9481481 237.125926,28.9481481 Z M61.5111111,103.762963 L123.525926,103.762963 C126.577778,103.762963 129.037037,101.303704 129.037037,98.2518519 C129.037037,95.2 126.577778,92.7407407 123.525926,92.7407407 L61.5111111,92.7407407 C58.4592593,92.7407407 56,95.2 56,98.2518519 C56,101.303704 58.4888889,103.762963 61.5111111,103.762963 Z M61.5111111,68.9481481 L158.340741,68.9481481 C161.392593,68.9481481 163.851852,66.4888889 163.851852,63.437037 C163.851852,60.3851852 161.392593,57.9259259 158.340741,57.9259259 L61.5111111,57.9259259 C58.4592593,57.9259259 56,60.3851852 56,63.437037 C56,66.4888889 58.4888889,68.9481481 61.5111111,68.9481481 Z M164.148148,127.555556 L61.5111111,127.555556 C58.4592593,127.555556 56,130.014815 56,133.066667 C56,136.118519 58.4592593,138.577778 61.5111111,138.577778 L164.148148,138.577778 C167.2,138.577778 169.659259,136.118519 169.659259,133.066667 C169.659259,130.014815 167.2,127.555556 164.148148,127.555556 Z M152.562963,162.37037 L61.5111111,162.37037 C58.4592593,162.37037 56,164.82963 56,167.881481 C56,170.933333 58.4592593,173.392593 61.5111111,173.392593 L152.533333,173.392593 C155.585185,173.392593 158.044444,170.933333 158.044444,167.881481 C158.074074,164.82963 155.585185,162.37037 152.562963,162.37037 Z" id="Shape"></path>
        </g>
    </g>
</svg>