<?xml version="1.0" encoding="UTF-8"?>
<svg width="256px" height="256px" viewBox="0 0 256 256" version="1.1" xmlns="http://www.w3.org/2000/svg" xmlns:xlink="http://www.w3.org/1999/xlink">
    <!-- Generator: Sketch 49.3 (51167) - http://www.bohemiancoding.com/sketch -->
    <title>Untitled</title>
    <desc>Created with Sketch.</desc>
    <defs></defs>
    <g id="Page-1" stroke="none" stroke-width="1" fill="none" fill-rule="evenodd">
        <g id="series" transform="translate(18.000000, 18.000000)" fill="#646464" fill-rule="nonzero">
            <path d="M201.098159,47.8800956 L28.6825669,47.8083596 C18.1173522,47.8083596 9.55127727,39.2417436 9.55127727,28.675595 C9.55127727,18.1092304 18.1173522,9.54239828 28.6825669,9.54239828 L196.210173,9.51863034 C197.391335,9.48513914 198.558454,9.0402464 199.462421,8.14116982 C201.33236,6.27084852 201.33236,3.24778182 199.462421,1.37767659 C198.563207,0.478383937 197.391335,0.033491197 196.209957,0 L27.8073356,0.0237679463 C12.4641057,0.487891115 0.153181677,12.9675754 0,28.3886511 L0,191.597304 C0.153181677,207.267079 12.8609953,219.933018 28.5537992,220 L200.969175,219.995246 C211.472166,219.937771 219.980771,211.423661 220,200.905264 L220,66.9940619 C219.995031,56.504403 211.548649,48.0093068 201.098159,47.8803117 L201.098159,47.8800956 Z M210.429494,200.871773 C210.429494,206.152578 206.143864,210.438371 200.863741,210.438371 L28.6823508,210.438371 C18.1173522,210.438371 9.55127727,201.871539 9.55127727,191.305391 L9.55127727,50.0231001 C14.3915158,54.3711217 21.7237112,57.1310125 28.6825669,57.374958 L200.863741,57.42271 C206.14408,57.42271 210.429278,61.7085028 210.429278,66.9890923 L210.429278,200.871773 L210.429494,200.871773 Z M23.8995824,28.675595 C23.8995824,31.3159978 26.0374283,33.4587862 28.6823508,33.4587862 L205.775493,33.4348022 C206.956872,33.401311 208.123775,32.9564182 209.027741,32.0573416 C210.897897,30.1870203 210.897897,27.1639537 209.027741,25.2938484 C208.128528,24.3945558 206.956872,23.949663 205.775493,23.9161718 L28.6823508,23.8924039 C26.0374283,23.8924039 23.8995824,26.0351923 23.8995824,28.675595 Z" id="Shape"></path>
        </g>
    </g>
</svg>