<?xml version="1.0" standalone="no"?><!DOCTYPE svg PUBLIC "-//W3C//DTD SVG 1.1//EN" "http://www.w3.org/Graphics/SVG/1.1/DTD/svg11.dtd"><svg t="1534671181671" class="icon" style="" viewBox="0 0 1028 1024" version="1.1" xmlns="http://www.w3.org/2000/svg" p-id="4393" xmlns:xlink="http://www.w3.org/1999/xlink" width="257" height="256"><defs><style type="text/css"></style></defs><path d="M939.68 227.415l-798.024-0.332c-48.901 0-88.549-39.647-88.549-88.548 0-48.902 39.648-88.55 88.549-88.55l775.4-0.11c5.467-0.155 10.869-2.214 15.053-6.375 8.655-8.656 8.655-22.647 0-31.302-4.162-4.162-9.586-6.221-15.054-6.376l-779.45 0.11C66.589 8.08 9.608 65.837 8.899 137.207V892.55C9.608 965.071 68.426 1023.69 141.06 1024l798.023-0.022c48.613-0.266 87.995-39.67 88.084-88.35V315.876c-0.023-48.547-39.117-87.863-87.487-88.46z m43.19 708.058c0 24.44-19.836 44.275-44.275 44.275h-796.94c-48.9 0-88.548-39.648-88.548-88.549V237.333c22.403 20.123 56.34 32.896 88.549 34.025l796.939 0.221c24.44 0 44.274 19.835 44.274 44.274v619.62zM119.518 138.535c0 12.22 9.895 22.137 22.137 22.137l819.674-0.111c5.468-0.155 10.869-2.214 15.053-6.375 8.656-8.656 8.656-22.647 0-31.302-4.162-4.162-9.585-6.221-15.053-6.376l-819.674-0.11c-12.242 0-22.137 9.917-22.137 22.137z" p-id="4394" fill="#646464"></path></svg>