<?xml version="1.0" encoding="UTF-8"?>
<svg width="256px" height="189px" viewBox="0 0 256 189" version="1.1" xmlns="http://www.w3.org/2000/svg" xmlns:xlink="http://www.w3.org/1999/xlink">
    <!-- Generator: Sketch 49.3 (51167) - http://www.bohemiancoding.com/sketch -->
    <title>Untitled 5</title>
    <desc>Created with Sketch.</desc>
    <defs></defs>
    <g id="Page-1" stroke="none" stroke-width="1" fill="none" fill-rule="evenodd">
        <g id="物流" fill="#646464" fill-rule="nonzero">
            <path d="M12.7856596,80.6506964 C11.4155335,80.6506964 10.2861052,82.7899721 10.2861052,85.4640669 C10.2861052,88.102507 11.3970183,90.2774373 12.7856596,90.2774373 L49.3532156,90.2774373 L51.2787983,80.686351 L12.7856596,80.686351 L12.7856596,80.6506964 Z M69.8830084,3.99331476 L2.80237273,3.99331476 C1.43224658,3.99331476 0.302818269,6.13259053 0.302818269,8.80668524 C0.302818269,11.4451253 1.41373136,13.6200557 2.80237273,13.6200557 L67.9759409,13.6200557 L69.8830084,3.99331476 Z M60.5438729,42.5002786 L7.79401618,42.5002786 C6.42389003,42.5002786 5.29446172,44.6395543 5.29446172,47.313649 C5.29446172,49.9520891 6.40537482,52.1270195 7.79401618,52.1270195 L58.6182902,52.1270195 L60.5438729,42.5002786 Z M173.744847,76.443454 C175.420613,76.443454 176.95376,75.5877437 177.809471,74.1615599 C178.700836,72.735376 178.772145,70.9526462 177.987744,69.4551532 L153.314763,21.3927577 C152.494708,19.7883008 150.854596,18.7899721 149.036212,18.7899721 L110.885794,18.7899721 C108.853482,18.7899721 107.035097,20.0735376 106.35766,21.9988858 L89.7426184,70.2038997 C89.243454,71.6657382 89.4573816,73.270195 90.3487465,74.5537604 C91.2401114,75.8373259 92.6662953,76.5860724 94.2350975,76.5860724 L173.709192,76.443454 L173.744847,76.443454 Z M101.009471,67.0306407 L114.272981,28.3810585 L146.112535,28.3810585 L165.829526,66.7454039 L101.009471,67.0306407 Z M190.003343,123.507521 C172.176045,123.507521 157.700279,137.983287 157.700279,155.810585 C157.700279,173.637883 172.176045,188.113649 190.003343,188.113649 C207.830641,188.113649 222.306407,173.637883 222.306407,155.810585 C222.306407,137.983287 207.866295,123.507521 190.003343,123.507521 Z M190.003343,176.739833 C178.451253,176.739833 169.074095,167.362674 169.074095,155.810585 C169.074095,144.258496 178.451253,134.881337 190.003343,134.881337 C201.555432,134.881337 210.932591,144.258496 210.932591,155.810585 C210.932591,167.362674 201.555432,176.739833 190.003343,176.739833 Z M82.0768802,97.6935933 C82.0768802,101.758217 85.3927577,105.074095 89.4573816,105.074095 C93.5220056,105.074095 96.837883,101.758217 96.837883,97.6935933 C96.837883,93.6289694 93.5220056,90.3130919 89.4573816,90.3130919 C85.3927577,90.3130919 82.0768802,93.5933148 82.0768802,97.6935933 Z M242.522563,101.865181 C241.595543,101.437326 240.704178,101.009471 239.919777,100.581616 C235.070752,97.9788301 217.528691,84.8579387 212.71532,80.7576602 C210.576045,78.9392758 202.803343,70.2752089 200.450139,64.6061281 C198.916992,60.8980501 193.426184,51.4139276 187.11532,40.432312 C181.196657,30.1637883 175.064067,19.5743733 172.354318,13.9766017 C166.114763,1.10529248 159.946518,0.0713091922 152.530362,0.0713091922 L95.6612813,0.0713091922 C93.664624,0.0713091922 91.8462396,1.31922006 91.1688022,3.20891365 L35.5476323,151.81727 C35.0128134,153.279109 35.2267409,154.954875 36.1181058,156.23844 C37.0094708,157.522006 38.4713092,158.306407 40.0401114,158.306407 L142.97493,158.306407 C143.04624,154.990529 143.509749,151.781616 144.329805,148.71532 L46.9214485,148.71532 L98.9415042,9.69805014 L152.459053,9.69805014 C157.486351,9.69805014 159.554318,9.69805014 163.654596,18.183844 C166.506964,24.102507 172.746518,34.870195 178.73649,45.281337 C184.405571,55.086351 190.21727,65.1766017 191.53649,68.3142061 C194.674095,75.9086351 203.587744,85.713649 206.475766,88.1381616 C211.85961,92.7019499 229.93649,104.57493 235.355989,107.498607 C236.318663,108.033426 237.388301,110.137047 238.457939,110.636212 C243.699164,113.060724 245.981058,114.522563 246.052368,118.088022 L246.052368,140.33649 C246.052368,145.898607 243.235655,148.750975 237.637883,148.750975 L232.254039,148.750975 C233.03844,151.852925 233.537604,155.026184 233.608914,158.342061 L237.637883,158.342061 C248.583844,158.342061 255.643454,151.282451 255.643454,140.33649 L255.643454,118.016713 C255.500836,107.926462 247.692479,104.289694 242.522563,101.865181 Z" id="Shape"></path>
        </g>
    </g>
</svg>