<?xml version="1.0" encoding="UTF-8"?>
<svg width="256px" height="256px" viewBox="0 0 256 256" version="1.1" xmlns="http://www.w3.org/2000/svg" xmlns:xlink="http://www.w3.org/1999/xlink">
    <!-- Generator: Sketch 49.3 (51167) - http://www.bohemiancoding.com/sketch -->
    <title>icon</title>
    <desc>Created with Sketch.</desc>
    <defs></defs>
    <g id="Page-1" stroke="none" stroke-width="1" fill="none" fill-rule="evenodd">
        <g id="我的专栏" transform="translate(20.000000, 0.000000)" fill="#646464" fill-rule="nonzero">
            <path d="M92.8181158,71.0370468 L69.4154518,57.3182435 L45.7437916,71.0370468 L45.7437916,16.9688228 L92.8181158,16.9688228 L92.8181158,71.0370468 Z M206.603483,202.845155 L72.1054131,202.845155 C67.801475,202.845155 64.3045249,199.348205 64.3045253,195.044267 L64.3045253,194.237278 C64.3045253,189.93334 67.801475,186.43639 72.1054131,186.43639 L206.603483,186.43639 C210.907421,186.43639 214.404371,189.93334 214.40437,194.237278 L214.40437,195.044267 C214.135374,199.348205 210.907421,202.845155 206.603483,202.845155 Z M153.073251,174.60056 L72.1054131,174.60056 C67.801475,174.60056 64.3045249,171.10361 64.3045253,166.799672 L64.3045253,165.992684 C64.3045253,161.688746 67.801475,158.191796 72.1054131,158.191796 L153.073251,158.191796 C157.377189,158.191796 160.874139,161.688745 160.874139,165.992684 L160.874139,166.799672 C160.874139,171.10361 157.377189,174.60056 153.073251,174.60056 Z M153.073251,146.355966 L72.1054131,146.355966 C67.801475,146.355966 64.3045249,142.859016 64.3045253,138.555077 L64.3045253,137.748089 C64.3045253,133.444151 67.801475,129.947201 72.1054131,129.947201 L153.073251,129.947201 C157.377189,129.947201 160.874139,133.444151 160.874139,137.748089 L160.874139,138.555077 C160.874139,142.859015 157.377189,146.355966 153.073251,146.355966 Z" id="Shape"></path>
            <path d="M199.340587,218.177934 L199.340587,224.09585 C199.340587,232.972722 193.422672,239.697626 184.276803,239.697626 L32.5629808,239.697626 C23.6861081,239.697626 16.4232126,232.972722 16.4232126,224.09585 L16.4232126,33.3775871 C16.4232126,24.5007145 23.6861085,16.4308305 32.5629808,16.4308305 L184.276803,16.4308305 C193.153676,16.4308305 199.340587,24.2317187 199.340587,33.3775871 L199.340587,202.038166 L215.480355,202.038166 L215.480355,33.3775871 C215.480355,15.6238418 202.299544,0.291062022 184.545799,0.291062334 L32.5629808,0.291062334 C14.8092355,0.291062334 0.283444073,15.6238421 0.283444073,33.3775871 L0.283444073,224.364846 C0.283444073,242.118591 14.8092355,255.837394 32.5629808,255.837394 L184.545799,255.837394 C202.299544,255.837394 215.480355,242.118591 215.480355,224.364846 L215.480355,218.177934 L199.340587,218.177934 Z" id="Shape"></path>
        </g>
    </g>
</svg>