<?xml version="1.0" standalone="no"?><!DOCTYPE svg PUBLIC "-//W3C//DTD SVG 1.1//EN" "http://www.w3.org/Graphics/SVG/1.1/DTD/svg11.dtd"><svg t="1513932476277" class="icon" style="" viewBox="0 0 1024 1024" version="1.1" xmlns="http://www.w3.org/2000/svg" p-id="997" xmlns:xlink="http://www.w3.org/1999/xlink" width="200" height="200"><defs><style type="text/css"></style></defs><path d="M111.865546 996.463866c-27.536134 0-55.072269-10.32605-74.003361-32.69916C18.931092 943.112605 8.605042 917.297479 8.605042 893.203361c0-27.536134 10.32605-55.072269 32.69916-74.003361L841.573109 55.072269c41.304202-39.583193 106.702521-37.862185 146.285715 3.442017 18.931092 20.652101 29.257143 46.467227 29.257142 70.561344 0 27.536134-10.32605 55.072269-32.699159 74.003362L184.147899 967.206723c-20.652101 18.931092-46.467227 29.257143-72.282353 29.257143z" fill="#ec6857" p-id="998"></path><path d="M894.92437 1015.394958c-27.536134 0-55.072269-10.32605-74.003362-32.69916L55.072269 182.426891C36.141176 161.77479 25.815126 135.959664 25.815126 111.865546c0-27.536134 10.32605-55.072269 32.69916-74.003361 41.304202-39.583193 106.702521-37.862185 146.285714 3.442017l764.127731 800.268907c18.931092 20.652101 29.257143 46.467227 29.257143 70.561345 0 27.536134-10.32605 55.072269-32.69916 74.003361-20.652101 18.931092-44.746218 29.257143-70.561344 29.257143z" fill="#ec6857" p-id="999"></path></svg>